<svg id="Layer_1" data-name="Layer 1" xmlns="http://www.w3.org/2000/svg" viewBox="0 0 102.49 122.88"><defs><style>.cls-1{fill-rule:evenodd;}</style></defs><title>regulations</title><path class="cls-1" d="M56.3,24.25l-.64.63L60,29.15,47,41.65l-4.21-4.4L25.12,55c-2.84,2.84-7.23-1.55-4.39-4.39L38.5,32.78,35,29.11,47.24,16.6l4,3.92.67-.67c2.83-2.84,7.22,1.57,4.39,4.4ZM28.43,71.92a1.82,1.82,0,0,1,2.6,0,1.88,1.88,0,0,1,0,2.64l-3.16,3.19,3.16,3.2a1.86,1.86,0,0,1,0,2.62,1.82,1.82,0,0,1-2.59,0L25.3,80.38l-3.15,3.19a1.82,1.82,0,0,1-2.6,0,1.87,1.87,0,0,1,0-2.64l3.15-3.2-3.15-3.19a1.85,1.85,0,0,1,0-2.62,1.82,1.82,0,0,1,2.59,0l3.14,3.18,3.14-3.19ZM6,5.38A.65.65,0,0,0,5.34,6V116.86a.63.63,0,0,0,.62.62H96.52a.63.63,0,0,0,.62-.62V6a.64.64,0,0,0-.62-.62Zm0,117.5a6,6,0,0,1-6-6V6A6,6,0,0,1,6,0H96.48a6,6,0,0,1,6,6V116.87a6,6,0,0,1-6,6Zm75.61-18.44a2.72,2.72,0,0,0,0-5.43H45.48a2.72,2.72,0,0,0,0,5.43H81.62Zm0-24.06a2.71,2.71,0,0,0,0-5.42H45.48a2.71,2.71,0,0,0,0,5.42Zm-62,21.21a2.41,2.41,0,0,1,4-2.69L25,100.85l4.52-5.66a2.41,2.41,0,0,1,3.72,3.06l-6.52,8.08a3,3,0,0,1-.58.55,2.42,2.42,0,0,1-3.35-.67l-3.12-4.62Zm60.63-40H52.41c-3.17,0-3.16-5,0-5h3A2.49,2.49,0,0,1,56.54,52H76.15a2.48,2.48,0,0,1,1.15,4.65h3c3.2,0,3.2,4.94,0,4.94ZM46.74,14.07l-14.3,14.3c-2.26,2.26-5.76-1.25-3.5-3.5l14.31-14.3c2.25-2.25,5.75,1.25,3.49,3.5ZM65.91,33.23l-14.3,14.3c-2.26,2.26-5.76-1.25-3.5-3.5l14.3-14.3c2.25-2.26,5.76,1.25,3.5,3.5Z"/></svg>